# xmcd
#
# Track frame offsets:
#	150
#	15231
#	30255
#	42731
#	56904
#	71260
#	85300
#	102316
#	118719
#	134593
#	145907
#	161815
#	175709
#	189021
#
# Disc length: 2704 seconds
#
# Revision: 1
# Processed by: cddbd v1.5.2PL0 Copyright (c) Steve Scherf et al.
# Submitted via: audiograbber 1.83.01
#
DISCID=b90a8e0e
DTITLE=Judith and Mel - Exclusiv-Edition - CD 2
DYEAR=1900
DGENRE=Folk
TTITLE0=Judith and Mel - Alles wird gut
TTITLE1=Judith and Mel - Ich fand das Glück
TTITLE2=Judith and Mel - Der Himmel ist Lachen in Liebe gehüllt
TTITLE3=Judith and Mel - Ich hör' deinen Herzschlag
TTITLE4=Judith and Mel - Wenn der Norden tanzt
TTITLE5=Judith and Mel - Vergissmeinnicht
TTITLE6=Judith and Mel - Hochzeits-Lied
TTITLE7=Judith and Mel - Ich will bei Dir sein, Schatzilein
TTITLE8=Judith and Mel - Bis ans Ende der Zeit
TTITLE9=Judith and Mel - Weil Du mein Schatz bist
TTITLE10=Judith and Mel - Bei uns geht's rund
TTITLE11=Judith and Mel - Im Norden, da bin ich zuhaus
TTITLE12=Judith and Mel - Jedes Schiff braucht einen Hafen
TTITLE13=Judith and Mel - Lieber Gott lass uns erhalten
EXTD=
EXTT0=
EXTT1=
EXTT2=
EXTT3=
EXTT4=
EXTT5=
EXTT6=
EXTT7=
EXTT8=
EXTT9=
EXTT10=
EXTT11=
EXTT12=
EXTT13=
PLAYORDER=
